<?xml version="1.0" standalone="no"?>
<svg xmlns="http://www.w3.org/2000/svg" viewBox="0 0 176.089 29" width="176.089" height="29"><g fill="#ead017" color="#ead017" transform="translate(0, 0) scale(0.29)"><svg width="100.0" height="100.0" x="0.0" y="0.0" viewBox="0 0 100 100"><g><path d="M81,11c-5,0-9,4-9,9s4,9,9,9s9-4,9-9S86,11,81,11z M81,27c-3.9,0-7-3.1-7-7s3.1-7,7-7s7,3.1,7,7S84.9,27,81,27z"></path><path d="M81,41c-2.6,0-4.9,1.1-6.6,2.9L57.3,25.3C58.4,23.8,59,22,59,20c0-5-4-9-9-9s-9,4-9,9s4,9,9,9c2.3,0,4.3-0.9,5.9-2.2   l17.3,18.7C72.5,46.8,72,48.4,72,50c0,5,4,9,9,9s9-4,9-9S86,41,81,41z M50,27c-3.9,0-7-3.1-7-7s3.1-7,7-7s7,3.1,7,7S53.9,27,50,27z    M81,57c-3.9,0-7-3.1-7-7s3.1-7,7-7s7,3.1,7,7S84.9,57,81,57z"></path><path d="M50,59c5,0,9-4,9-9s-4-9-9-9s-9,4-9,9S45,59,50,59z M50,43c3.9,0,7,3.1,7,7s-3.1,7-7,7s-7-3.1-7-7S46.1,43,50,43z"></path><path d="M19,89c5,0,9-4,9-9s-4-9-9-9s-9,4-9,9S14,89,19,89z M19,73c3.9,0,7,3.1,7,7s-3.1,7-7,7s-7-3.1-7-7S15.1,73,19,73z"></path><path d="M81,71c-4.6,0-8.4,3.5-8.9,8H58.9c-0.5-4.5-4.3-8-8.9-8c-3.2,0-6,1.7-7.6,4.2l-18-18c2.2-1.6,3.6-4.3,3.6-7.2   c0-4.6-3.5-8.4-8-8.9V28.9c4.5-0.5,8-4.3,8-8.9c0-5-4-9-9-9s-9,4-9,9c0,4.6,3.5,8.4,8,8.9v12.1c-4.5,0.5-8,4.3-8,8.9c0,5,4,9,9,9   c1.3,0,2.5-0.3,3.6-0.7l18.9,18.9C41.2,78,41,79,41,80c0,5,4,9,9,9c4.6,0,8.4-3.5,8.9-8h13.1c0.5,4.5,4.3,8,8.9,8c5,0,9-4,9-9   S86,71,81,71z M12,20c0-3.9,3.1-7,7-7s7,3.1,7,7s-3.1,7-7,7S12,23.9,12,20z M12,50c0-3.9,3.1-7,7-7s7,3.1,7,7s-3.1,7-7,7   S12,53.9,12,50z M50,87c-3.9,0-7-3.1-7-7s3.1-7,7-7s7,3.1,7,7S53.9,87,50,87z M81,87c-3.9,0-7-3.1-7-7s3.1-7,7-7s7,3.1,7,7   S84.9,87,81,87z"></path></g></svg></g><line x1="41" y1="1" x2="41" y2="28" stroke="#000000" stroke-linecap="round"></line><path fill="#000000" fill-rule="nonzero" d="M0 18.96L0 0.96L3.70 0.96Q7.25 0.96 9 3.22Q10.75 5.47 10.75 10.03L10.75 10.03Q10.75 12.46 10.09 14.47Q9.43 16.49 7.99 17.72Q6.55 18.96 4.32 18.96L4.32 18.96L0 18.96ZM3.50 16.15L4.01 16.15Q5.83 16.15 6.54 14.58Q7.25 13.01 7.25 10.70L7.25 10.70L7.25 9.89Q7.25 8.23 7.04 6.95Q6.84 5.66 6.11 4.72Q5.38 3.77 3.91 3.77L3.91 3.77L3.50 3.77L3.50 16.15ZM15.29 19.27Q14.42 19.27 13.73 18.73Q13.03 18.19 12.65 17.27Q12.26 16.34 12.26 15.19L12.26 15.19Q12.26 12.58 14.05 11.51Q15.84 10.44 18.22 10.30L18.22 10.30Q18.22 9 18.05 8.38Q17.88 7.75 17.23 7.75L17.23 7.75Q16.68 7.75 16.39 8.18Q16.10 8.62 16.03 9.29L16.03 9.29L12.74 8.71Q12.98 6.86 14.26 6.07Q15.53 5.28 17.23 5.28L17.23 5.28Q19.42 5.28 20.51 6.43Q21.60 7.58 21.60 9.43L21.60 9.43L21.60 16.42Q21.60 17.54 21.96 18.82L21.96 18.82L18.67 19.10L18.29 17.45Q17.86 18.22 17.02 18.74Q16.18 19.27 15.29 19.27L15.29 19.27ZM16.85 16.87Q17.26 16.87 17.53 16.68Q17.81 16.49 18.22 16.06L18.22 16.06L18.22 12.31Q17.02 12.31 16.30 12.96Q15.58 13.61 15.58 14.98L15.58 14.98Q15.58 15.89 15.90 16.38Q16.22 16.87 16.85 16.87L16.85 16.87ZM24.38 19.10L24.38 5.74L27.74 5.45L27.74 7.18Q28.78 6.26 29.77 5.77Q30.77 5.28 31.61 5.28L31.61 5.28Q32.88 5.28 33.68 6.20Q34.49 7.13 34.49 8.69L34.49 8.69L34.49 18.82L31.13 19.10L31.13 9.96Q31.13 8.16 29.90 8.16L29.90 8.16Q29.50 8.16 29.00 8.40Q28.51 8.64 27.74 9.10L27.74 9.10L27.74 18.82L24.38 19.10ZM48.91 18.96L45.70 18.96L42.02 1.10L45.86 0.96L47.76 11.74L49.80 1.10L52.68 0.96L54.58 11.86L56.86 1.10L60.10 0.96L56.23 18.96L52.75 18.96L50.86 7.97L48.91 18.96ZM65.14 3.58L61.78 3.72L61.78 0.24L65.14 0L65.14 3.58ZM65.11 18.82L61.75 19.10L61.75 5.74L65.11 5.45L65.11 18.82ZM71.45 18.82L68.09 19.10L68.09 1.39L71.45 0.96L71.45 18.82ZM78.41 19.27Q76.42 19.27 75.19 18.37Q73.97 17.47 73.61 15.86L73.61 15.86L76.22 15Q76.32 15.46 76.58 15.82L76.58 15.82Q77.14 16.61 78.19 16.61L78.19 16.61Q78.79 16.61 79.34 16.34Q79.90 16.08 79.90 15.53L79.90 15.53Q79.90 14.78 78.86 14.38L78.86 14.38L76.03 13.22Q74.90 12.74 74.30 11.78Q73.70 10.82 73.70 9.43L73.70 9.43Q73.70 8.14 74.34 7.20Q74.98 6.26 76.02 5.77Q77.06 5.28 78.26 5.28L78.26 5.28Q79.78 5.28 81.05 6.16Q82.32 7.03 82.75 8.54L82.75 8.54L79.97 9.41Q79.87 9 79.63 8.59L79.63 8.59Q79.10 7.78 78.29 7.78L78.29 7.78Q77.69 7.78 77.26 8.05Q76.82 8.33 76.82 8.86L76.82 8.86Q76.82 9.48 78 10.01L78 10.01L80.40 10.99Q81.67 11.59 82.39 12.50Q83.11 13.42 83.11 14.95L83.11 14.95Q83.11 16.34 82.44 17.32Q81.77 18.29 80.69 18.78Q79.61 19.27 78.41 19.27L78.41 19.27ZM89.81 19.22Q88.18 19.22 87.05 18.40Q85.92 17.57 85.92 15.46L85.92 15.46L85.92 7.99L84.05 7.99L84.19 5.45L86.02 5.45L86.35 2.52L89.28 2.11L89.28 5.45L92.06 5.45L91.92 7.99L89.30 7.99L89.30 15.43Q89.30 16.15 89.66 16.46Q90.02 16.78 90.72 16.78L90.72 16.78Q91.10 16.78 92.02 16.63L92.02 16.63L92.02 18.96Q91.92 18.98 91.26 19.10Q90.60 19.22 89.81 19.22L89.81 19.22ZM93.84 19.10L93.84 5.74L97.20 5.45L97.20 7.63Q97.92 6.60 98.99 5.96Q100.06 5.33 101.71 5.33L101.71 5.33L101.71 8.62Q100.85 8.62 99.44 8.92Q98.04 9.22 97.20 9.96L97.20 9.96L97.20 18.82L93.84 19.10ZM107.93 19.27Q105.50 19.27 104.20 17.35Q102.89 15.43 102.89 12.24L102.89 12.24Q102.89 9.07 104.18 7.18Q105.48 5.28 107.93 5.28L107.93 5.28Q110.35 5.28 111.68 7.18Q113.02 9.07 113.02 12.24L113.02 12.24Q113.02 15.41 111.68 17.34Q110.35 19.27 107.93 19.27L107.93 19.27ZM107.93 16.78Q109.01 16.78 109.32 15.46Q109.63 14.14 109.63 12.22L109.63 12.22Q109.63 10.30 109.32 8.98Q109.01 7.66 107.93 7.66L107.93 7.66Q106.85 7.66 106.56 8.90Q106.27 10.15 106.27 11.95L106.27 11.95Q106.27 14.16 106.56 15.47Q106.85 16.78 107.93 16.78L107.93 16.78ZM115.30 23.16L115.30 5.74L118.66 5.45L118.66 6.77Q119.45 5.98 120.13 5.63Q120.82 5.28 121.73 5.28L121.73 5.28Q122.98 5.28 123.71 5.98Q124.44 6.67 124.76 8.15Q125.09 9.62 125.09 12.10L125.09 12.10Q125.09 15.48 124.31 17.38Q123.53 19.27 121.32 19.27L121.32 19.27Q120.31 19.27 119.71 18.89Q119.11 18.50 118.66 17.81L118.66 17.81L118.66 22.49L115.30 23.16ZM120.12 16.70Q120.91 16.70 121.31 15.77Q121.70 14.83 121.70 12.24L121.70 12.24Q121.70 9.77 121.31 8.74Q120.91 7.70 120.10 7.70L120.10 7.70Q119.26 7.70 118.66 8.64L118.66 8.64L118.66 15.62Q119.14 16.70 120.12 16.70L120.12 16.70Z" transform="translate(51, 5.02)"></path></svg>